<mxfile host="app.diagrams.net" modified="2023-05-16T16:35:28.253Z" agent="Mozilla/5.0 (X11; Linux x86_64) AppleWebKit/537.36 (KHTML, like Gecko) Chrome/112.0.0.0 Safari/537.36" version="21.3.2" etag="qQlmCRTqZ1mnjv2x_dYW" type="github">
  <diagram name="Page-1" id="bAmDec2ulGi66cXTBQO8">
    <mxGraphModel>
      <root>
        <mxCell id="0" />
        <mxCell id="1" parent="0" />
      </root>
    </mxGraphModel>
  </diagram>
</mxfile>
